HIERARCHY
ROOT hemi_large
{
	OFFSET 0.000000 0.000000 0.000000
	CHANNELS 6 Xposition Yposition Zposition Yrotation Xrotation Zrotation
	End Site
	{
		OFFSET 0.000000 0.000000 0.000000
	}
}
MOTION
Frames: 200
Frame Time: 0.008333334
-2.050399 0.530241 2.651387 -47.195590 14.508940 20.346650 
-2.050399 0.530241 2.651387 -47.195590 14.508940 20.346650 
-2.050399 0.530241 2.651387 -47.195590 14.508940 20.346650 
-2.050399 0.530241 2.651387 -47.195590 14.508940 20.346650 
-2.050399 0.530241 2.651387 -47.195590 14.508940 20.346650 
-2.050399 0.530241 2.651387 -47.195590 14.508940 20.346650 
-2.050399 0.530241 2.651387 -47.195590 14.508940 20.346650 
-2.050399 0.530241 2.651387 -47.195590 14.508940 20.346650 
-2.050399 0.530241 2.651387 -47.195590 14.508940 20.346650 
-2.050399 0.530241 2.651387 -47.195590 14.508940 20.346650 
-2.050399 0.530241 2.651387 -47.195590 14.508940 20.346650 
-2.050399 0.530241 2.651387 -47.195590 14.508940 20.346650 
-2.050399 0.530241 2.651387 -47.195590 14.508940 20.346650 
-2.050399 0.530241 2.651387 -47.195590 14.508940 20.346650 
-2.050399 0.530241 2.651387 -47.195590 14.508940 20.346650 
-2.050399 0.530241 2.651387 -47.195590 14.508940 20.346650 
-2.050399 0.530241 2.651387 -47.195590 14.508940 20.346650 
-2.050399 0.530241 2.651387 -47.195590 14.508940 20.346650 
-2.050399 0.530241 2.651387 -47.195590 14.508940 20.346650 
-2.050399 0.530241 2.651387 -47.195590 14.508940 20.346650 
-2.050399 0.530241 2.651387 -47.195590 14.508940 20.346650 
-2.050399 0.530241 2.651387 -47.195590 14.508940 20.346650 
-2.050399 0.530241 2.651387 -47.195590 14.508940 20.346650 
-2.050399 0.530241 2.651387 -47.195590 14.508940 20.346650 
-2.050399 0.530241 2.651387 -47.195590 14.508940 20.346650 
-2.050399 0.530241 2.651387 -47.195590 14.508940 20.346650 
-2.050399 0.530241 2.651387 -47.195590 14.508940 20.346650 
-2.050399 0.530241 2.651387 -47.195590 14.508940 20.346650 
-2.050399 0.530241 2.651387 -47.195590 14.508940 20.346650 
-2.050399 0.530241 2.651387 -47.195590 14.508940 20.346650 
-2.050399 0.530241 2.651387 -47.195590 14.508940 20.346650 
-2.050399 0.530241 2.651387 -47.195590 14.508940 20.346650 
-2.050399 0.530241 2.651387 -47.195590 14.508940 20.346650 
-2.050399 0.530241 2.651387 -47.195590 14.508940 20.346650 
-2.050399 0.530241 2.651387 -47.195590 14.508940 20.346650 
-2.050399 0.530241 2.651387 -47.195590 14.508940 20.346650 
-2.050399 0.530241 2.651387 -47.195590 14.508940 20.346650 
-2.050399 0.530241 2.651387 -47.195590 14.508940 20.346650 
-2.050399 0.530241 2.651387 -47.195590 14.508940 20.346650 
-2.050399 0.530241 2.651387 -47.195590 14.508940 20.346650 
-2.050399 0.530241 2.651387 -47.195590 14.508940 20.346650 
-2.050399 0.530241 2.651387 -47.195590 14.508940 20.346650 
-2.050399 0.530241 2.651387 -47.195590 14.508940 20.346650 
-2.050399 0.530241 2.651387 -47.195590 14.508940 20.346650 
-2.050399 0.530241 2.651387 -47.195590 14.508940 20.346650 
-2.050399 0.530241 2.651387 -47.195590 14.508940 20.346650 
-2.050399 0.530241 2.651387 -47.195590 14.508940 20.346650 
-2.050399 0.530241 2.651387 -47.195590 14.508940 20.346650 
-2.050399 0.530241 2.651387 -47.195590 14.508940 20.346650 
-2.050399 0.530241 2.651387 -47.195590 14.508940 20.346650 
-2.050399 0.530241 2.651387 -47.195590 14.508940 20.346650 
-2.050399 0.530241 2.651387 -47.195590 14.508940 20.346650 
-2.050399 0.530241 2.651387 -47.195590 14.508940 20.346650 
-2.050399 0.530241 2.651387 -47.195590 14.508940 20.346650 
-2.050399 0.530241 2.651387 -47.195590 14.508940 20.346650 
-2.050399 0.530241 2.651387 -47.195590 14.508940 20.346650 
-2.050399 0.530241 2.651387 -47.195590 14.508940 20.346650 
-2.050399 0.530241 2.651387 -47.195590 14.508940 20.346650 
-2.050399 0.530241 2.651387 -47.195590 14.508940 20.346650 
-2.050399 0.530241 2.651387 -47.195590 14.508940 20.346650 
-2.050399 0.530241 2.651387 -47.195590 14.508940 20.346650 
-2.050399 0.530241 2.651387 -47.195590 14.508940 20.346650 
-2.050399 0.530241 2.651387 -47.195590 14.508940 20.346650 
-2.050399 0.530241 2.651387 -47.195590 14.508940 20.346650 
-2.050399 0.530241 2.651387 -47.195590 14.508940 20.346650 
-2.050399 0.530241 2.651387 -47.195590 14.508940 20.346650 
-2.050399 0.530241 2.651387 -47.195590 14.508940 20.346650 
-2.050399 0.530241 2.651387 -47.195590 14.508940 20.346650 
-2.050399 0.530241 2.651387 -47.195590 14.508940 20.346650 
-2.050399 0.530241 2.651387 -47.195590 14.508940 20.346650 
-2.050399 0.530241 2.651387 -47.195590 14.508940 20.346650 
-2.050399 0.530241 2.651387 -47.195590 14.508940 20.346650 
-2.050399 0.530241 2.651387 -47.195590 14.508940 20.346650 
-2.050399 0.530241 2.651387 -47.195590 14.508940 20.346650 
-2.050399 0.530241 2.651387 -47.195590 14.508940 20.346650 
-2.050399 0.530241 2.651387 -47.195590 14.508940 20.346650 
-2.050399 0.530241 2.651387 -47.195590 14.508940 20.346650 
-2.050399 0.530241 2.651387 -47.195590 14.508940 20.346650 
-2.050399 0.530241 2.651387 -47.195590 14.508940 20.346650 
-2.050399 0.530241 2.651387 -47.195590 14.508940 20.346650 
-2.050399 0.530241 2.651387 -47.195590 14.508940 20.346650 
-2.050399 0.530241 2.651387 -47.195590 14.508940 20.346650 
-2.050399 0.530241 2.651387 -47.195590 14.508940 20.346650 
-2.050399 0.530241 2.651387 -47.195590 14.508940 20.346650 
-2.050399 0.530241 2.651387 -47.195590 14.508940 20.346650 
-2.050399 0.530241 2.651387 -47.195590 14.508940 20.346650 
-2.050399 0.530241 2.651387 -47.195590 14.508940 20.346650 
-2.050399 0.530241 2.651387 -47.195590 14.508940 20.346650 
-2.050399 0.530241 2.651387 -47.195590 14.508940 20.346650 
-2.050399 0.530241 2.651387 -47.195590 14.508940 20.346650 
-2.050399 0.530241 2.651387 -47.195590 14.508940 20.346650 
-2.050399 0.530241 2.651387 -47.195590 14.508940 20.346650 
-2.050399 0.530241 2.651387 -47.195590 14.508940 20.346650 
-2.050399 0.530241 2.651387 -47.195590 14.508940 20.346650 
-2.050399 0.530241 2.651387 -47.195590 14.508940 20.346650 
-2.050399 0.530241 2.651387 -47.195590 14.508940 20.346650 
-2.050399 0.530241 2.651387 -47.195590 14.508940 20.346650 
-2.050399 0.530241 2.651387 -47.195590 14.508940 20.346650 
-2.050399 0.530241 2.651387 -47.195590 14.508940 20.346650 
-2.050399 0.530241 2.651387 -47.195590 14.508940 20.346650 
-2.050399 0.530241 2.651387 -47.195590 14.508940 20.346650 
-2.050399 0.530241 2.651387 -47.195590 14.508940 20.346650 
-2.050399 0.530241 2.651387 -47.195590 14.508940 20.346650 
-2.050399 0.530241 2.651387 -47.195590 14.508940 20.346650 
-2.050399 0.530241 2.651387 -47.195590 14.508940 20.346650 
-2.050399 0.530241 2.651387 -47.195590 14.508940 20.346650 
-2.050399 0.530241 2.651387 -47.195590 14.508940 20.346650 
-2.050399 0.530241 2.651387 -47.195590 14.508940 20.346650 
-2.050399 0.530241 2.651387 -47.195590 14.508940 20.346650 
-2.050399 0.530241 2.651387 -47.195590 14.508940 20.346650 
-2.050399 0.530241 2.651387 -47.195590 14.508940 20.346650 
-2.050399 0.530241 2.651387 -47.195590 14.508940 20.346650 
-2.050399 0.530241 2.651387 -47.195590 14.508940 20.346650 
-2.050399 0.530241 2.651387 -47.195590 14.508940 20.346650 
-2.050399 0.530241 2.651387 -47.195590 14.508940 20.346650 
-2.050399 0.530241 2.651387 -47.195590 14.508940 20.346650 
-2.050399 0.530241 2.651387 -47.195590 14.508940 20.346650 
-2.050399 0.530241 2.651387 -47.195590 14.508940 20.346650 
-2.050399 0.530241 2.651387 -47.195590 14.508940 20.346650 
-2.050399 0.530241 2.651387 -47.195590 14.508940 20.346650 
-2.050399 0.530241 2.651387 -47.195590 14.508940 20.346650 
-2.050399 0.530241 2.651387 -47.195590 14.508940 20.346650 
-2.050399 0.530241 2.651387 -47.195590 14.508940 20.346650 
-2.050399 0.530241 2.651387 -47.195590 14.508940 20.346650 
-2.050399 0.530241 2.651387 -47.195590 14.508940 20.346650 
-2.050399 0.530241 2.651387 -47.195590 14.508940 20.346650 
-2.050399 0.530241 2.651387 -47.195590 14.508940 20.346650 
-2.050399 0.530241 2.651387 -47.195590 14.508940 20.346650 
-2.050399 0.530241 2.651387 -47.195590 14.508940 20.346650 
-2.050399 0.530241 2.651387 -47.195590 14.508940 20.346650 
-2.050399 0.530241 2.651387 -47.195590 14.508940 20.346650 
-2.050399 0.530241 2.651387 -47.195590 14.508940 20.346650 
-2.050399 0.530241 2.651387 -47.195590 14.508940 20.346650 
-2.050399 0.530241 2.651387 -47.195590 14.508940 20.346650 
-2.050399 0.530241 2.651387 -47.195590 14.508940 20.346650 
-2.050399 0.530241 2.651387 -47.195590 14.508940 20.346650 
-2.050399 0.530241 2.651387 -47.195590 14.508940 20.346650 
-2.050399 0.530241 2.651387 -47.195590 14.508940 20.346650 
-2.050399 0.530241 2.651387 -47.195590 14.508940 20.346650 
-2.050399 0.530241 2.651387 -47.195590 14.508940 20.346650 
-2.050399 0.530241 2.651387 -47.195590 14.508940 20.346650 
-2.050399 0.530241 2.651387 -47.195590 14.508940 20.346650 
-2.050399 0.530241 2.651387 -47.195590 14.508940 20.346650 
-2.050399 0.530241 2.651387 -47.195590 14.508940 20.346650 
-2.050399 0.530241 2.651387 -47.195590 14.508940 20.346650 
-2.050399 0.530241 2.651387 -47.195590 14.508940 20.346650 
-2.050399 0.530241 2.651387 -47.195590 14.508940 20.346650 
-2.050399 0.530241 2.651387 -47.195590 14.508940 20.346650 
-2.050399 0.530241 2.651387 -47.195590 14.508940 20.346650 
-2.050399 0.530241 2.651387 -47.195590 14.508940 20.346650 
-2.050399 0.530241 2.651387 -47.195590 14.508940 20.346650 
-2.050236 0.530308 2.651415 -47.176420 14.541300 20.396130 
-2.050314 0.530369 2.651357 -47.205660 14.505550 20.340220 
-2.050182 0.530486 2.651438 -47.169490 14.507810 20.388300 
-2.050381 0.530187 2.651459 -47.161590 14.534710 20.415120 
-2.050238 0.530208 2.651367 -47.200010 14.527960 20.391270 
-2.050364 0.530232 2.651266 -47.168950 14.521910 20.366640 
-2.050354 0.530475 2.651306 -47.175600 14.505800 20.392480 
-2.050230 0.530338 2.651491 -47.177460 14.550160 20.399330 
-2.050421 0.530237 2.651389 -47.168000 14.521970 20.368610 
-2.050427 0.530473 2.651478 -47.137020 14.503650 20.377930 
-2.050401 0.530124 2.651566 -47.141910 14.484450 20.449880 
-2.050376 0.530409 2.651384 -47.175480 14.522010 20.401210 
-2.050256 0.530349 2.651583 -47.164860 14.520230 20.444020 
-2.050141 0.530316 2.651440 -47.212920 14.526990 20.382470 
-2.050353 0.530394 2.651518 -47.147770 14.516430 20.407200 
-2.050198 0.530260 2.651299 -47.183070 14.537150 20.412930 
-2.050379 0.530213 2.651501 -47.193360 14.523820 20.400770 
-2.050475 0.530167 2.651407 -47.186400 14.514210 20.346060 
-2.050246 0.530292 2.651507 -47.202700 14.515710 20.356270 
-2.050278 0.530182 2.651349 -47.203700 14.507010 20.354590 
-2.050291 0.530533 2.651380 -47.143040 14.520860 20.395920 
-2.050496 0.530234 2.651319 -47.192380 14.504970 20.339250 
-2.050305 0.530267 2.651479 -47.190770 14.547340 20.386200 
-2.050401 0.530172 2.651322 -47.170840 14.523150 20.365560 
-2.050236 0.530515 2.651538 -47.171020 14.523490 20.419060 
-2.050582 0.530137 2.651602 -47.167300 14.493050 20.344620 
-2.050403 0.530305 2.651526 -47.184080 14.516930 20.365270 
-2.050223 0.530473 2.651449 -47.200900 14.540810 20.385930 
-2.050077 0.530468 2.651464 -47.147030 14.497650 20.441260 
-2.050299 0.530416 2.651322 -47.168090 14.504380 20.390850 
-2.050321 0.530335 2.651327 -47.176700 14.508330 20.369900 
-2.050342 0.530253 2.651331 -47.185300 14.512280 20.348930 
-2.050239 0.530281 2.651359 -47.193080 14.526410 20.373630 
-2.050135 0.530308 2.651386 -47.200840 14.540540 20.398340 
-2.050293 0.530254 2.651435 -47.184600 14.524320 20.381360 
-2.050451 0.530199 2.651484 -47.168370 14.508110 20.364370 
-2.050609 0.530145 2.651534 -47.152130 14.491900 20.347370 
-2.050207 0.530328 2.651538 -47.190430 14.523410 20.374530 
-2.050170 0.530246 2.651348 -47.227780 14.523460 20.387640 
-2.050303 0.530297 2.651411 -47.204900 14.520130 20.343520 
-2.050357 0.530256 2.651447 -47.190370 14.521420 20.350340 
-2.050440 0.530230 2.651410 -47.181150 14.515860 20.344630 
-2.050345 0.530207 2.651325 -47.155000 14.524020 20.376490 
-2.050465 0.530178 2.651507 -47.171170 14.474310 20.339530 
-2.050381 0.530285 2.651370 -47.194340 14.522770 20.347970 
-2.050377 0.530262 2.651365 -47.182650 14.511670 20.341900 
-2.050431 0.530278 2.651352 -47.200260 14.534000 20.347250 
-2.050338 0.530259 2.651311 -47.197140 14.505720 20.337290 
-2.050386 0.530222 2.651385 -47.189760 14.504820 20.335940 
